<?xml version="1.0" standalone="no"?><!DOCTYPE svg PUBLIC "-//W3C//DTD SVG 1.1//EN" "http://www.w3.org/Graphics/SVG/1.1/DTD/svg11.dtd"><svg t="1585558025747" class="icon" viewBox="0 0 1024 1024" version="1.1" xmlns="http://www.w3.org/2000/svg" p-id="2292" xmlns:xlink="http://www.w3.org/1999/xlink" width="200" height="200"><defs><style type="text/css"></style></defs><path d="M800 192c19.2 0 32 12.8 32 32v576c0 19.2-12.8 32-32 32H224c-19.2 0-32-12.8-32-32V224c0-19.2 12.8-32 32-32h576z m-32 64H256v512h512V256z" fill="#221814" p-id="2293"></path><path d="M704 480c19.2 0 32 12.8 32 32s-12.8 32-32 32c-67.2 0-102.4 16-163.2 67.2l-9.6 6.4c-76.8 64-124.8 86.4-211.2 86.4-19.2 0-32-12.8-32-32s12.8-32 32-32c67.2 0 102.4-16 163.2-67.2l9.6-6.4c76.8-64 121.6-86.4 211.2-86.4z m-320-128c35.2 0 64 28.8 64 64s-28.8 64-64 64-64-28.8-64-64 28.8-64 64-64z" fill="#C70019" p-id="2294"></path></svg>